<svg width="640" height="600" xmlns="http://www.w3.org/2000/svg">
 <g>
  <title>Layer 1</title>
  <g id="svg_1" stroke="null"/>
  <g transform="rotate(-180 323.077 301.538)" stroke="null">

   <path stroke="null" fill="#000000" p-id="4754" d="m333.56035,595.07517c111.27136,0 188.31426,-35.78002 235.08094,-97.87351c33.14868,-43.99905 47.97228,-97.70578 47.97228,-143.24589c0,-84.18212 -37.26867,-155.00833 -111.12459,-211.77622l-4.19338,-3.17649l0,-131.00122l-20.96691,0l0,136.28488a10.48345,10.48345 0 0 0 4.31919,8.48111c74.25429,54.00026 110.99879,120.80082 110.99879,201.18793c0,41.30481 -13.618,90.61896 -43.75793,130.62382c-42.66765,56.66306 -113.44144,89.52868 -218.32838,89.52868c-120.16133,0 -193.15761,-76.30905 -220.30975,-232.42862a10.48345,10.48345 0 0 0 -2.62086,-5.31511c-40.01534,-43.34908 -60.1226,-73.50997 -60.1226,-87.24329c0,-10.49394 16.43805,-18.44039 54.11558,-20.48467a31.45036,31.45036 0 0 0 29.69962,-29.56333l0.05242,-1.8346l0,-136.81954c0,-21.42818 8.6803,-30.82135 29.28028,-31.4189l2.17008,-0.03145l115.31797,0l0,-20.96691l-115.31797,0c-32.85514,0 -51.42133,17.70655 -52.37533,49.78592l-0.04194,2.63134l0,136.80905a10.48345,10.48345 0 0 1 -9.91734,10.48346c-47.69971,2.56845 -73.95027,15.25342 -73.95027,41.40964c0,19.62502 18.67103,49.10449 56.19131,91.01733l7.40131,8.18757l0.38789,2.13863c29.22787,160.2186 108.28358,242.82821 235.90913,244.57894l4.13048,0.03145zm-93.34466,-368.34659l16.85739,47.55294l71.70682,0l16.85739,-47.55294l33.71478,0l-69.19078,179.64444l-33.46318,0l-68.93918,-179.64444l32.45677,0zm80.26131,71.45521l-54.84942,0l27.17311,77.24208l0.75481,0l26.9215,-77.24208zm107.43442,-71.45521l0,179.64444l-31.45036,0l0,-179.64444l31.45036,0z"/>
  </g>
 </g>

</svg>