<?xml version="1.0" encoding="UTF-8"?> <svg xmlns="http://www.w3.org/2000/svg" width="640" height="600"><g><title>Layer 1</title><g transform="rotate(-180 318.965 301.011)" stroke="null"><path stroke="null" fill="#000000" d="m174.14811,193.46631l4.0364,-21.08377l-8.69545,-1.71762c-81.82307,-16.86487 -140.37239,-46.24689 -140.37239,-67.28771c0,-37.5085 134.37146,-81.47954 289.84816,-81.47954l9.79043,0.05368c151.27927,1.79276 280.05773,44.71176 280.05773,81.4366c0,21.28774 -60.28842,51.28165 -143.85057,67.97476l-4.34773,0.85881l4.04714,21.07303l9.12485,-1.81423c91.76378,-18.91528 156.49653,-51.88282 156.49653,-88.09237c0,-55.86555 -143.92571,-102.96051 -311.3184,-102.96051l-10.01586,0.05368c-163.07716,1.82497 -301.30253,48.15773 -301.30253,102.90683c0,36.37058 65.14069,69.41327 157.48417,88.29634l9.0175,1.78202zm142.2403,161.26293a75.22096,75.22096 0 0 0 -72.56939,75.10288c0,41.43755 33.70827,75.14582 75.14582,75.14582s75.14582,-33.70827 75.14582,-75.14582c0,-40.57874 -32.3127,-73.73952 -72.56939,-75.10288l-2.57643,-0.04294l-2.57643,0.04294zm2.57643,128.77846c-29.58598,0 -53.67558,-24.0896 -53.67558,-53.67558a53.75073,53.75073 0 0 1 51.34606,-53.62191l2.32952,-0.05368l2.32952,0.05368a53.76147,53.76147 0 0 1 51.29239,51.29239l0.05368,2.32952c0,29.58598 -24.08961,53.67558 -53.67559,53.67558zm0,118.08629c96.61605,0 171.76187,-75.14582 171.76187,-171.76187c0,-107.35117 -156.61462,-329.89015 -163.28113,-339.18676a10.43453,10.43453 0 0 0 -16.96149,0l-8.34119,12.00186c-33.65459,49.05949 -154.93994,232.71587 -154.93994,327.1849c0,96.61605 75.15655,171.76187 171.76187,171.76187zm0,-21.47023c-84.75375,0 -150.29164,-65.53789 -150.29164,-150.29164c0,-42.10313 28.59836,-111.92433 76.32668,-195.73339a1709.4493,1709.4493 0 0 1 55.12483,-89.85293l6.69871,-10.16615c2.18997,-3.29568 4.32625,-6.48401 6.39813,-9.55425l5.74328,-8.44854l8.89941,13.13978c2.13629,3.18833 4.32625,6.47328 6.54842,9.87631l3.40303,5.15285a1708.74078,1708.74078 0 0 1 55.11409,89.85293l5.99019,10.62777c44.12133,79.06414 70.33649,144.78452 70.33649,185.10562c0,84.75375 -65.53789,150.29164 -150.29164,150.29164z" id="svg_1"></path></g></g></svg> 