<?xml version="1.0" encoding="UTF-8"?> <svg xmlns="http://www.w3.org/2000/svg" width="640" height="600"><g><title>Layer 1</title><g stroke="null"> </g><g><path transform="rotate(-180 321.724 298.276)" stroke="null" fill="#000000" d="m288.97335,265.52509l0,-262.0061l-218.33842,0a43.66768,43.66768 0 0 0 -43.66768,43.66768l0,218.33842l262.0061,0zm196.50457,0c72.34644,0 131.00305,-58.65662 131.00305,-131.00305s-58.65662,-131.00305 -131.00305,-131.00305s-131.00305,58.65662 -131.00305,131.00305s58.65662,131.00305 131.00305,131.00305zm-218.33842,-21.83384l-218.33841,0l0,-196.50457a21.83384,21.83384 0 0 1 20.1963,-21.77926l1.63754,-0.05458l196.50457,0l0,218.33841zm218.33842,0c-60.29415,0 -109.16921,-48.87505 -109.16921,-109.1692s48.87506,-109.16921 109.16921,-109.16921s109.16921,48.87505 109.16921,109.16921s-48.87505,109.16921 -109.16921,109.1692zm-196.50457,349.34147l0,-262.0061l-262.0061,0l0,218.33842a43.66768,43.66768 0 0 0 43.66768,43.66768l218.33842,0zm283.83994,0a43.66768,43.66768 0 0 0 43.66768,-43.66768l0,-218.33842l-262.0061,0l0,262.0061l218.33842,0zm-305.67378,-21.83384l-196.50458,0a21.83384,21.83384 0 0 1 -21.77926,-20.1963l-0.05458,-1.63754l0,-196.50457l218.33841,0l0,218.33841l0.00001,0zm305.67378,0l-196.50458,0l0,-218.33841l218.33842,0l0,196.50457a21.83384,21.83384 0 0 1 -20.1963,21.77926l-1.63754,0.05458z"></path></g></g></svg> 