<?xml version="1.0" encoding="UTF-8"?> <svg xmlns="http://www.w3.org/2000/svg" width="640" height="600"><g><title>Layer 1</title><g stroke="null" id="svg_1"></g><g transform="rotate(-180 320.98 302.924)" stroke="null"><path stroke="null" fill="#000000" d="m590.51372,329.16967l-46.93913,81.12716l38.13805,-15.56954l32.63737,24.9888l-23.83628,-90.54642zm-371.23825,-13.59978l-0.79629,-0.88011c-5.38543,-6.67416 -0.73342,-17.00496 8.20387,-17.00496l88.7443,0l-66.90922,-152.97128c-4.8406,-11.04327 9.76502,-20.16916 17.58122,-10.98041l178.11724,209.5497l0.69152,0.91154c4.66248,6.78941 -0.13621,16.35535 -8.67536,16.35535l-89.31008,0l36.16827,90.41022c4.2329,10.58226 -9.0735,19.35191 -17.13069,11.29473l-146.68479,-146.68479zm125.39454,95.76421l-22.94569,-57.37471l-0.37719,-1.15252a10.47748,10.47748 0 0 1 10.11077,-13.21211l82.11205,0l-117.3164,-138.01991l44.80173,102.38598l0.42957,1.15252a10.47748,10.47748 0 0 1 -10.02695,13.52643l-79.4822,0l92.69431,92.69431zm259.2025,-113.64928c0,-38.05423 -7.52284,-75.08166 -21.95034,-109.42685a282.94448,282.94448 0 0 0 -260.94176,-173.46524c-130.40278,0 -242.8681,88.94337 -274.29008,213.37398l-0.98489,4.03383l20.38919,4.81964c27.76533,-117.13828 132.85451,-201.27248 254.88577,-201.27248a261.98951,261.98951 0 0 1 241.62128,160.61984a260.81603,260.81603 0 0 1 20.2425,95.10413l0.07334,6.21315l20.95497,0zm-568.64454,10.47748c0,38.05422 7.52284,75.08166 21.95034,109.42685a282.94448,282.94448 0 0 0 260.94176,173.46524c130.40278,0 242.8681,-88.94337 274.29008,-213.37399l0.98489,-4.03383l-20.38919,-4.81964c-27.76533,117.13828 -132.85451,201.27248 -254.88577,201.27248a261.98951,261.98951 0 0 1 -241.62128,-160.61984a260.81603,260.81603 0 0 1 -20.2425,-95.10413l-0.07334,-6.21315l-20.95497,0zm16.21915,-20.64065l46.93913,-81.13764l-38.13805,15.58002l-32.63737,-24.9888l23.83628,90.54642z"></path></g></g></svg> 