<?xml version="1.0" encoding="UTF-8"?> <svg xmlns="http://www.w3.org/2000/svg" width="640" height="600"><g><title>Layer 1</title><g id="svg_1" stroke="null"></g><g transform="rotate(-180 321.538 300.247)" stroke="null"><path stroke="null" fill="#000000" d="m431.66265,415.87765c109.4745,0 198.22362,-88.74912 198.22362,-198.22362s-88.74912,-198.22362 -198.22362,-198.22362s-198.22362,88.74912 -198.22362,198.22362s88.74911,198.22362 198.22362,198.22362zm0,-22.02485c-97.31679,0 -176.19877,-78.88199 -176.19877,-176.19878s78.88199,-176.19877 176.19877,-176.19877s176.19877,78.88199 176.19877,176.19877s-78.88199,176.19878 -176.19877,176.19878zm11.01242,-44.0497l0,-121.13665l99.11181,0l0,-22.02485l-110.12424,0a11.01242,11.01242 0 0 0 -10.93534,9.72397l-0.07709,1.28846l0,132.14908l22.02485,0zm-286.323,-77.08696l0,-22.02485l-143.1615,0l0,22.02485l143.1615,0zm99.11181,154.17393l0,-22.02485l-242.27331,0l0,22.02485l242.27331,0zm-66.07454,-308.34785l0,-22.02485l-176.19877,0l0,22.02485l176.19877,0zm308.34785,462.52178l0,-22.02485l-484.54662,0l0,22.02485l484.54662,0z"></path></g></g></svg> 