<?xml version="1.0" encoding="UTF-8"?> <svg xmlns="http://www.w3.org/2000/svg" width="640" height="600"><g><title>Layer 1</title><g id="svg_1" stroke="null"></g><g transform="rotate(-180 320.769 300.769)" stroke="null"><path stroke="null" fill="#000000" d="m320.76924,591.99819l0,-291.22897l291.22897,0c0,-160.8416 -130.39777,-291.22897 -291.22897,-291.22897c-160.852,0 -291.22897,130.38737 -291.22897,291.22897c0,159.23984 127.78711,288.61831 286.40289,291.18737l4.82608,0.0416zm-20.80207,-312.03104l0,290.44889l-1.22732,-0.10401c-139.19705,-11.21232 -248.39751,-127.76631 -248.39751,-269.54281c0,-149.35886 121.06804,-270.4269 270.4269,-270.4269c140.45557,0 255.91746,107.09945 269.15797,244.09148l0.46805,5.53335l-290.42809,0zm107.16186,299.06095c89.74013,-28.57164 160.08232,-98.32098 191.32703,-188.36273l1.58096,-4.68046l-19.76197,-6.50065c-27.83317,84.50841 -92.27798,150.35735 -175.00781,178.26333l-4.44124,1.45614l6.30303,19.82437z"></path></g></g></svg> 